<svg width="28" height="28" viewBox="0 0 28 28" fill="none" xmlns="http://www.w3.org/2000/svg">
<path d="M13.7583 25.4864C20.4585 25.4864 25.8901 20.1857 25.8901 13.647C25.8901 7.10828 20.4585 1.80762 13.7583 1.80762C7.05807 1.80762 1.62646 7.10828 1.62646 13.647C1.62646 20.1857 7.05807 25.4864 13.7583 25.4864Z" fill="white"/>
<path fill-rule="evenodd" clip-rule="evenodd" d="M1.55172 20.1005C1.51359 20.0375 1.47388 19.9743 1.43254 19.9111L1.4737 19.949C0.530893 18.0901 0 15.9899 0 13.7667C0 6.16355 6.20895 0 13.8681 0C21.5272 0 27.7362 6.16355 27.7362 13.7667C27.7362 21.3698 21.5272 27.5333 13.8681 27.5333C11.9247 27.5333 10.0747 27.1365 8.39577 26.4201C-4.10069 30.4907 4.49195 26.0329 1.803 20.5595C1.71641 20.4082 1.63263 20.2552 1.55172 20.1005ZM9.7684 9.16095C9.07894 9.16095 8.52002 9.72163 8.52002 10.4133C8.52002 11.1049 9.07894 11.6656 9.7684 11.6656H16.4499C17.1394 11.6656 17.6983 11.1049 17.6983 10.4133C17.6983 9.72163 17.1394 9.16095 16.4499 9.16095H9.7684ZM9.7684 16.4215C9.07894 16.4215 8.52002 16.9822 8.52002 17.6738C8.52002 18.3655 9.07894 18.9262 9.7684 18.9262H16.4499C17.1394 18.9262 17.6983 18.3655 17.6983 17.6738C17.6983 16.9822 17.1394 16.4215 16.4499 16.4215H9.7684ZM11.1465 12.7912C10.4571 12.7912 9.89814 13.3519 9.89814 14.0436C9.89814 14.7352 10.4571 15.2959 11.1465 15.2959H17.828C18.5175 15.2959 19.0764 14.7352 19.0764 14.0436C19.0764 13.3519 18.5175 12.7912 17.828 12.7912H11.1465Z" fill="url(#paint0_linear)"/>
<path d="M27.9999 4.34331C27.9999 1.94456 26.0614 0 23.6702 0C21.279 0 19.3406 1.94456 19.3406 4.34331C19.3406 6.74205 21.279 8.68661 23.6702 8.68661C26.0614 8.68661 27.9999 6.74205 27.9999 4.34331Z" fill="#FF2E2E"/>
<path d="M22.6812 3.4631L23.7788 2.51318H24.1539V5.86688H24.8789V6.21712H22.9002V5.86688H23.6932V3.34468C23.6932 3.26909 23.6957 3.19266 23.7007 3.11539L23.0412 3.6798C23.0244 3.69324 23.0072 3.70331 22.9895 3.71003C22.9719 3.71675 22.9556 3.72011 22.9405 3.72011C22.9153 3.72011 22.8922 3.71423 22.8712 3.70247C22.8502 3.69072 22.8347 3.67728 22.8247 3.66216L22.6812 3.4631Z" fill="white"/>
<defs>
<linearGradient id="paint0_linear" x1="21.8026" y1="30.9388" x2="3.76476" y2="-6.51649" gradientUnits="userSpaceOnUse">
<stop stop-color="#2589FF"/>
<stop offset="1" stop-color="#78DAFF"/>
</linearGradient>
</defs>
</svg>
